<svg width="600" height="600" viewBox="0 0 600 600" fill="none" xmlns="http://www.w3.org/2000/svg">
<path d="M175.868 39.5377C177.546 37.8111 180.165 37.5557 182.122 38.7926C185.398 38.7528 188.441 38.7221 190.575 38.7482C193.127 38.7794 194.586 38.8838 196.168 39.1828L196.858 39.3231L197.328 39.4254L197.771 39.6159C201.611 41.267 205.614 43.5043 208.959 46.1222C212.174 48.6392 215.385 51.9768 216.68 55.9984C217.598 58.8465 220.389 68.3615 217.445 82.728C215.352 92.9437 213.5 100.773 211.481 106.072C210.479 108.701 209.285 111.127 207.707 112.952C206.022 114.901 203.606 116.461 200.491 116.367C196.329 116.242 190.502 115.991 184.817 114.446C179.098 112.893 173.035 109.9 168.941 103.946C166.118 99.84 162.251 93.1557 160.141 85.3405C158.025 77.5009 157.579 68.1119 162.246 59.13C167.821 48.4007 174.184 41.2719 175.868 39.5377ZM181.006 48.8051C178.613 51.6719 174.691 56.8679 171.12 63.7407C167.978 69.7878 168.087 76.4077 169.795 82.7342C171.51 89.085 174.738 94.7247 177.182 98.2804C179.457 101.588 183.034 103.599 187.439 104.796C191.663 105.944 196.196 106.219 200.19 106.351C200.637 105.809 201.315 104.665 202.136 102.51C203.826 98.0777 205.539 91.0134 207.648 80.7205C210.137 68.5736 207.748 60.8834 207.162 59.0638C206.784 57.8882 205.459 56.0825 202.795 53.9966C200.379 52.1059 197.341 50.3599 194.279 49.0033C193.488 48.855 192.615 48.7732 190.453 48.7467C188.183 48.719 184.755 48.7574 181.006 48.8051Z" fill="#D93F3F"/>
<path d="M248.115 34.4323C250.876 34.432 253.115 36.6712 253.115 39.4326C253.118 65.9688 253.608 89.7061 253.011 99.4323C252.862 101.862 252.631 103.832 252.231 105.269C252.057 105.893 251.686 107.069 250.802 108.097C250.305 108.674 249.471 109.407 248.232 109.779C246.92 110.173 245.673 110.005 244.699 109.612C243.096 108.966 242.235 107.725 241.976 107.346C241.588 106.78 241.293 106.19 241.085 105.735C240.661 104.81 240.288 103.755 240.021 102.99L240 102.929L239.981 102.869C239.258 100.609 236.913 95.2329 233.352 86.8256C229.876 78.6209 225.425 67.9342 220.748 55.5467C218.932 50.7397 217.958 47.9678 217.431 46.3452C217.169 45.538 216.998 44.9579 216.888 44.5221C216.802 44.1811 216.663 43.5968 216.654 42.9342C216.618 40.1731 218.827 37.9053 221.588 37.8691C224.116 37.836 226.229 39.6856 226.595 42.1173C226.637 42.2741 226.734 42.6173 226.941 43.2554C227.397 44.6578 228.307 47.2608 230.102 52.0146C234.712 64.2225 239.105 74.7705 242.559 82.9253C242.812 83.5216 243.062 84.1073 243.306 84.6823C243.323 73.1462 243.117 57.165 243.115 39.4328C243.115 36.6717 245.354 34.4328 248.115 34.4323ZM226.653 42.8031C226.652 42.7241 226.648 42.649 226.644 42.5786C226.648 42.6531 226.652 42.7278 226.653 42.8031Z" fill="#D93F3F"/>
<path d="M302.283 33.4413C305.03 33.1609 307.484 35.1609 307.764 37.908C308.045 40.655 306.045 43.1093 303.298 43.3898C298.651 43.8643 294.046 44.335 287.853 44.6773C281.705 45.0171 274.23 45.2232 270.495 45.3257C266.786 45.4275 266.641 45.4299 266.51 45.4317C263.749 45.4679 261.481 43.2588 261.445 40.4976C261.409 37.7366 263.618 35.4687 266.379 35.4325C266.415 35.432 266.439 35.4332 270.222 35.3294C273.979 35.2263 281.315 35.0233 287.302 34.6925C293.243 34.3641 297.648 33.9146 302.283 33.4413Z" fill="#D93F3F"/>
<path d="M309.824 62.5812C312.585 62.545 314.853 64.7541 314.889 67.5152C314.925 70.2764 312.716 72.5441 309.955 72.5803L266.31 73.1523C263.548 73.1885 261.281 70.9795 261.244 68.2183C261.208 65.4571 263.417 63.1894 266.178 63.1532L309.824 62.5812Z" fill="#D93F3F"/>
<path d="M304.318 92.949C307.077 92.8295 309.41 94.9692 309.53 97.7278C309.649 100.487 307.51 102.821 304.751 102.94C288.073 103.663 274.922 103.867 268.298 103.971C261.691 104.074 261.55 104.076 261.413 104.078C258.651 104.114 256.384 101.905 256.348 99.1435C256.312 96.3825 258.521 94.1146 261.282 94.0785C261.403 94.0769 261.522 94.0752 268.142 93.9719C274.745 93.8689 287.783 93.6652 304.318 92.949Z" fill="#D93F3F"/>
<path d="M289.333 27.1994C289.845 24.4861 292.461 22.702 295.174 23.2143C297.887 23.7268 299.672 26.3419 299.159 29.0554C299.119 29.2681 295.987 45.3425 290.223 72.4258L290.211 72.4861L290.196 72.546C287.509 83.8067 285.305 89.9457 283.635 95.6842C281.941 101.503 280.642 107.39 279.263 113.649C278.668 116.345 276 118.05 273.303 117.456C270.606 116.861 268.902 114.193 269.496 111.496C270.864 105.291 272.231 99.0798 274.033 92.8889C275.857 86.625 277.849 81.1971 280.459 70.2646C283.327 56.7884 285.538 46.0578 287.037 38.6749C287.788 34.9763 288.36 32.1176 288.746 30.1754C288.939 29.2043 289.086 28.4619 289.184 27.9585C289.285 27.4474 289.332 27.2022 289.333 27.1994Z" fill="#D93F3F"/>
<path d="M313.073 34.4858C313.037 31.7246 315.246 29.4569 318.007 29.4207C320.768 29.3845 323.036 31.5935 323.072 34.3547C323.072 34.361 323.072 34.3522 323.342 45.9869C323.611 57.5892 324.148 80.7353 324.909 105.09C324.995 107.85 322.827 110.157 320.067 110.243C317.307 110.33 315 108.161 314.914 105.401C314.152 81.0028 313.613 57.8214 313.344 46.2186C313.076 34.6484 313.074 34.5593 313.073 34.4858Z" fill="#D93F3F"/>
<path d="M318.368 30.4513C323.169 30.3891 331.007 30.5798 338.282 31.1162C341.918 31.3843 345.495 31.7443 348.52 32.2185C351.305 32.655 354.354 33.2871 356.407 34.3926C359.2 35.8967 360.57 38.7433 361.305 40.9316C362.108 43.3221 362.557 46.1615 362.782 49.1121C363.238 55.1231 360.104 59.4993 357.652 62.4119C354.213 66.4957 348.513 68.7304 343.59 70.299C341.764 70.8808 339.869 71.4184 338.018 71.9308C345.879 77.2128 354.58 81.9677 359.195 83.8105C361.632 84.7303 362.433 84.9121 364.013 85.4097C366.647 86.2391 368.109 89.047 367.28 91.6809C366.451 94.3147 363.644 95.777 361.01 94.9479C359.708 94.5379 358.435 94.2142 355.611 93.1464L355.57 93.1313L355.529 93.1152C348.229 90.2098 333.448 81.7334 323.726 73.8526L316.678 68.1388L325.273 65.232C327.783 64.3828 330.477 63.634 333.056 62.9257C335.684 62.2036 338.194 61.5228 340.554 60.7706C345.546 59.1801 348.615 57.6196 350.002 55.9716C352.106 53.4731 352.953 51.7507 352.81 49.8698C352.618 47.3458 352.261 45.4146 351.824 44.1147C351.639 43.5638 351.482 43.2467 351.388 43.0832C351.357 43.0716 351.323 43.0582 351.287 43.0454C351.033 42.9563 350.697 42.8538 350.267 42.7443C349.403 42.5239 348.297 42.3058 346.971 42.098C344.323 41.6828 341.045 41.3475 337.547 41.0896C330.553 40.5739 323.003 40.3921 318.497 40.4505C315.736 40.4862 313.469 38.2766 313.433 35.5155C313.397 32.7544 315.607 30.4871 318.368 30.4513Z" fill="#D93F3F"/>
<path d="M385.406 24.3167C389.562 24.1499 394.27 24.9694 398.513 26.1187C402.798 27.2791 406.973 28.8752 410.14 30.4999C414.757 32.8686 417.618 36.9027 419.34 39.6653C422.99 45.5197 423.2 53.1762 422.409 59.7527C421.594 66.5322 419.578 73.2521 417.665 78.0714L417.45 78.6143L417.114 79.0933C411.192 87.5585 403.908 94.4207 395.287 97.2383L394.745 97.4154L394.177 97.4658C392.055 97.6551 389.233 97.7451 386.222 97.8025C385.324 98.7661 384.051 99.3769 382.63 99.3956C380.667 99.4213 378.954 98.3107 378.115 96.6743C377.06 95.7717 376.383 94.4382 376.364 92.941C376.348 91.7194 376.772 90.595 377.488 89.717C377.461 88.1008 377.427 86.0941 377.385 83.7306C377.262 76.9328 377.075 67.1835 376.813 55.2806C376.696 50.0089 376.427 46.0266 376.272 42.1586C376.121 38.3839 376.089 34.8755 376.544 31.1931L376.581 30.925C376.789 29.5877 377.313 28.3017 378.225 27.2059C379.176 26.0627 380.321 25.3999 381.311 25.0149C383.06 24.3343 384.952 24.3348 385.406 24.3167ZM386.287 34.2962C386.125 36.5639 386.151 38.9306 386.264 41.7581C386.405 45.2792 386.691 49.7061 386.81 55.0597C387.133 69.7175 387.34 81.1172 387.454 87.7728C389.483 87.7248 391.28 87.655 392.715 87.5476C398.126 85.5995 403.527 80.9315 408.581 73.8375C410.187 69.6685 411.82 64.0524 412.481 58.5595C413.195 52.6211 412.651 47.8373 410.855 44.9556C409.352 42.5445 407.681 40.4775 405.576 39.3974C403.118 38.1367 399.612 36.7763 395.899 35.7709C392.362 34.8129 388.955 34.2644 386.287 34.2962Z" fill="#D93F3F"/>
<path d="M454.298 32.8392C455.631 32.0117 457.332 31.8213 458.887 32.4792C462.358 33.9484 463.689 34.7557 464.828 35.384C469.809 38.0182 476 41.7447 480.014 47.6265L480.396 48.2055L481.066 49.2466L481.172 50.4807C481.689 56.5055 481.903 64.5409 479.468 70.911C476.857 77.7428 473.748 86.0354 464.839 89.9071C461.841 91.2098 455.39 93.3893 447.536 91.6018C441.081 90.1323 433.222 87.3961 429.311 80.577C427.518 77.4502 425.774 72.6506 424.863 67.5306C423.958 62.4458 423.757 56.3863 425.707 51.0123C426.722 48.2138 428.804 43.3179 433.902 40.1491C437.736 37.7662 441.774 36.0024 445.079 34.8107C448.243 33.6701 451.172 32.898 452.767 32.7479C453.293 32.6984 453.808 32.7326 454.298 32.8392ZM455.779 42.0295C455.164 42.3935 454.462 42.6319 453.704 42.7033C453.731 42.7007 453.605 42.7142 453.279 42.7821C452.978 42.8448 452.58 42.9385 452.095 43.0681C451.126 43.3272 449.882 43.7097 448.471 44.2183C445.632 45.2419 442.267 46.7241 439.181 48.6422C437.043 49.9713 435.931 52.1534 435.107 54.4236C433.998 57.4795 433.957 61.5592 434.708 65.7794C435.452 69.9641 436.858 73.6356 437.986 75.6025C439.602 78.4196 443.507 80.4286 449.756 81.8511C454.694 82.975 458.837 81.6109 460.853 80.7349C465.371 78.7717 467.291 74.7618 470.128 67.3408C471.563 63.5856 471.702 58.1585 471.309 52.6473C468.734 49.2318 464.667 46.605 460.095 44.1909L460.055 44.17L460.015 44.149C459.002 43.5906 458.138 43.0586 455.779 42.0295Z" fill="#D93F3F"/>
<path d="M499.78 28.2014C501.22 25.8455 504.298 25.1033 506.654 26.5438C509.01 27.9843 509.752 31.0623 508.312 33.4182C504.602 39.4857 499.357 48.769 495.391 56.5289C494.363 58.5393 493.44 60.4124 492.66 62.0779C493.323 61.9081 494.025 61.7271 494.764 61.5327C500.25 60.0887 507.403 58.0849 515.75 55.8285C517.057 55.475 518.545 55.1214 519.837 55.0981C520.38 55.0883 521.824 55.095 523.234 55.9765C524.059 56.4927 524.839 57.2918 525.315 58.3899C525.772 59.4433 525.805 60.4385 525.725 61.164C525.581 62.4521 525.017 63.4403 524.747 63.8851C524.41 64.4405 524.012 64.9658 523.641 65.4212C522.896 66.3348 521.9 67.4079 520.801 68.5632L520.779 68.5849C508.499 81.3335 497.011 95.0729 490.998 104.732C488.384 109.088 486.702 112.245 484.126 117.527C482.915 120.008 479.921 121.04 477.439 119.829C474.958 118.619 473.927 115.625 475.138 113.143C477.817 107.651 479.637 104.228 482.442 99.5558L482.462 99.5224L482.483 99.4898C487.891 90.7927 497.045 79.5091 507.083 68.5593C503.431 69.5595 500.129 70.4609 497.309 71.2033C494.544 71.931 492.146 72.5318 490.251 72.9414C489.305 73.1459 488.426 73.3163 487.657 73.4296C486.978 73.5294 486.052 73.6385 485.158 73.5727C483.988 73.4865 482.746 73.0062 481.761 72.0096C480.861 71.0985 480.494 70.0782 480.337 69.4089C480.05 68.1896 480.215 67.0774 480.31 66.5419C480.531 65.2889 481.032 63.8503 481.564 62.5016C482.675 59.6836 484.456 55.9516 486.487 51.9782C490.571 43.9865 495.94 34.4809 499.78 28.2014Z" fill="#D93F3F"/>
<path d="M528.311 37.4681C528.275 34.707 530.484 32.4392 533.245 32.403C536.007 32.3669 538.274 34.5759 538.31 37.3371C538.313 37.5482 538.568 57.0123 540.431 86.3653C540.797 88.5627 541.195 89.9623 541.562 90.8401C541.775 91.3505 541.943 91.6004 542.025 91.7052C542.072 91.7144 542.142 91.7259 542.241 91.7356C542.752 91.7857 543.467 91.7562 544.798 91.6454C549.937 91.2178 556.801 90.3554 566.798 89.3823C569.546 89.115 571.991 91.1263 572.258 93.8746C572.526 96.623 570.514 99.0678 567.766 99.3353C558.25 100.262 550.754 101.184 545.628 101.611C543.468 101.791 539.364 102.273 535.989 99.699C532.705 97.1944 531.345 92.8367 530.521 87.7394L530.483 87.5006L530.467 87.2586C528.575 57.5491 528.316 37.7964 528.311 37.4681Z" fill="#D93F3F"/>
<path d="M564.155 58.6886C566.916 58.6524 569.184 60.8614 569.22 63.6226C569.256 66.3838 567.047 68.6515 564.286 68.6877L535.88 69.06C533.119 69.0962 530.851 66.8871 530.815 64.1259C530.779 61.3648 532.988 59.097 535.749 59.0609L564.155 58.6886Z" fill="#D93F3F"/>
<path d="M565.971 31.3197C568.731 31.2372 571.035 33.4076 571.118 36.1677C571.2 38.9278 569.03 41.232 566.27 41.3147C554.777 41.6581 544.376 41.795 539.147 41.8635L533.746 41.9343C530.985 41.9705 528.717 39.7613 528.681 37.0002C528.645 34.239 530.854 31.9713 533.615 31.9351L539.016 31.8644C544.241 31.7959 554.569 31.6604 565.971 31.3197Z" fill="#D93F3F"/>
<path d="M62.9518 40.4571C64.5768 40.5337 65.7915 41.2583 66.5298 41.8391C67.2678 42.4197 67.847 43.1034 68.2856 43.6883C69.8896 45.8272 71.8264 49.753 74.3938 55.1092C79.7576 66.2993 88.961 86.2029 99.0943 109.367C100.201 111.897 99.0471 114.845 96.5172 115.951C93.9875 117.058 91.04 115.905 89.9331 113.375C79.8413 90.3057 70.6854 70.5075 65.3764 59.4319C64.671 57.9601 64.0504 56.6809 63.5034 55.5723C62.562 58.7966 61.3926 62.9172 59.8595 67.4199C48.4258 101.002 47.402 110.749 47.3987 112.744C47.3944 115.506 45.1528 117.741 42.3915 117.737C39.63 117.733 37.3953 115.49 37.3996 112.729C37.4057 108.862 39.0071 97.6375 50.3927 64.197C51.9188 59.7146 53.0522 55.6734 54.0558 52.2525C54.5485 50.5729 55.0248 48.9919 55.4955 47.6424C55.9434 46.3581 56.4932 44.9597 57.2071 43.8081C57.648 43.0969 59.4369 40.2915 62.9518 40.4571ZM65.7066 49.0771C65.7046 49.0803 65.702 49.0834 65.6999 49.0869C65.8104 48.9448 65.8118 48.9073 65.7066 49.0771Z" fill="#D93F3F"/>
<path d="M102.405 66.3205C105.131 65.8831 107.696 67.7391 108.133 70.4655C108.571 73.192 106.716 75.7575 103.989 76.1951C99.9759 76.839 97.509 77.4304 89.7306 79.2846C82.0442 81.1168 69.4236 84.122 59.9846 85.6749L59.8424 85.6983L59.699 85.7129C44.5117 87.3198 38.4557 87.4103 38.1638 87.4142C35.4026 87.4504 33.135 85.2412 33.0987 82.4801C33.0625 79.7189 35.2715 77.4512 38.0327 77.415L38.0884 77.4143C38.1289 77.4135 38.1931 77.4122 38.2817 77.4098C38.4589 77.4051 38.7339 77.3957 39.1134 77.3804C39.8728 77.3498 41.0504 77.2929 42.6981 77.1859C45.9704 76.9735 51.0946 76.5647 58.4858 75.7846C67.4918 74.2947 79.6644 71.404 87.4115 69.5573C95.1026 67.7239 97.9511 67.035 102.405 66.3205Z" fill="#D93F3F"/>
<path d="M121.004 40.7551C120.968 37.994 123.177 35.7262 125.938 35.6901C128.699 35.6539 130.967 37.8629 131.003 40.6241C131.006 40.8184 131.236 58.4734 131.869 86.0551C132.26 95.7453 132.789 97.3856 133.516 100.381C134.352 103.826 135.411 108.58 136.773 115.838C137.282 118.552 135.493 121.166 132.779 121.675C130.065 122.184 127.452 120.396 126.943 117.682C125.61 110.576 124.589 105.995 123.799 102.741C122.902 99.0452 122.291 96.7449 121.876 86.4019L121.873 86.316C121.239 58.6758 121.007 40.9735 121.004 40.7551Z" fill="#D93F3F"/>
<path d="M545.694 133.28L545.694 93.4925C545.694 90.7311 547.932 88.4925 550.694 88.4925C553.455 88.4925 555.694 90.7311 555.694 93.4925L555.694 133.28C555.694 136.041 553.455 138.28 550.694 138.28C547.932 138.28 545.694 136.041 545.694 133.28Z" fill="#D93F3F"/>
</svg>
