<svg width="600" height="600" viewBox="0 0 600 600" fill="none" xmlns="http://www.w3.org/2000/svg">
<path d="M325.048 381.007C327.809 381.007 330.048 383.246 330.048 386.007C330.048 388.768 327.809 391.007 325.048 391.007C321.099 391.007 317.36 391.007 315.122 391.055C312.902 391.102 312.339 391.186 306.175 391.487C300.159 391.78 289.257 392.255 283.783 392.492C278.429 392.725 278.165 392.735 277.954 392.735C275.193 392.735 272.954 390.496 272.954 387.735C272.954 384.973 275.193 382.735 277.954 382.735C277.951 382.735 277.935 382.735 277.915 382.736C277.893 382.736 277.876 382.735 277.867 382.736C277.873 382.735 277.886 382.735 277.906 382.735C277.993 382.731 278.167 382.724 278.522 382.709C279.228 382.68 280.611 382.621 283.349 382.502C288.832 382.264 299.705 381.79 305.688 381.498C311.521 381.214 312.52 381.108 314.91 381.057C317.282 381.007 321.155 381.007 325.048 381.007Z" fill="black"/>
</svg>
