<svg width="600" height="600" viewBox="0 0 600 600" fill="none" xmlns="http://www.w3.org/2000/svg">
<path d="M301.785 264.585C313.801 264.585 322.648 271.47 329.662 277.655L331.21 279.031L331.364 279.196C336.021 284.186 339.531 288.582 341.651 291.953L342.056 292.613L342.133 292.742L342.202 292.875C342.602 293.645 342.922 294.279 343.461 295.242C344.81 297.651 343.951 300.698 341.542 302.048C339.132 303.397 336.085 302.538 334.736 300.129C334.145 299.074 333.748 298.296 333.407 297.636C331.862 295.086 328.811 291.135 324.209 286.188C316.861 279.629 310.298 274.585 301.784 274.585C283.47 274.584 280.82 275.674 279.086 276.777C277.085 278.049 274.23 279.552 272.626 280.501C270.677 281.653 269.196 282.714 268.094 283.942C265.536 286.794 260.428 293.428 258.642 296.117C257.115 298.417 254.012 299.044 251.712 297.516C249.411 295.989 248.785 292.885 250.312 290.585C252.366 287.492 257.77 280.476 260.65 277.265C262.771 274.902 265.286 273.224 267.537 271.893C270.132 270.359 271.681 269.635 273.719 268.339C278.366 265.384 284.216 264.584 301.785 264.585Z" fill="black"/>
<path d="M252.633 288.646C254.985 287.356 257.919 288.157 259.302 290.424C259.278 290.386 259.349 290.493 259.597 290.772C259.895 291.108 260.324 291.553 260.855 292.055C261.933 293.075 263.273 294.174 264.59 295.002C268.225 297.284 273.355 300.44 283.088 304.696C284.943 305.507 287.259 305.86 296.21 306.362C309.675 307.118 317.146 306.574 321.645 305.626C325.558 304.801 327.254 303.684 329.158 302.406C331.252 300.305 332.637 298.394 333.57 296.949L333.647 296.83L333.73 296.715C334.559 295.577 335.561 294.46 336.37 293.553C338.207 291.492 341.368 291.31 343.429 293.147C345.491 294.984 345.672 298.144 343.835 300.206C342.975 301.172 342.341 301.89 341.863 302.537C340.579 304.507 338.675 307.088 335.837 309.866L335.505 310.191L335.12 310.449C332.731 312.046 329.797 314.127 323.707 315.411C317.93 316.628 309.43 317.12 295.65 316.346C287.271 315.876 282.931 315.542 279.082 313.859C268.763 309.347 263.183 305.926 259.272 303.469C257.252 302.201 255.395 300.655 253.987 299.324C253.275 298.651 252.638 297.996 252.118 297.41C251.69 296.927 251.072 296.196 250.654 295.434C249.326 293.013 250.212 289.974 252.633 288.646Z" fill="black"/>
<path d="M298.431 282.784C301.182 282.535 303.613 284.563 303.862 287.313C303.947 288.248 304.022 289.467 303.864 290.67C303.71 291.847 303.237 293.752 301.564 295.225C300.02 296.584 298.219 296.892 297.185 296.975C296.056 297.067 294.994 296.953 294.239 296.837C293.776 296.766 292.614 296.604 291.528 296.161C290.334 295.674 288.252 294.427 287.663 291.696C287.402 290.488 287.266 289.496 287.194 288.78C287.158 288.422 287.138 288.133 287.128 287.92C287.122 287.813 287.12 287.726 287.118 287.66L287.117 287.633C287.117 287.642 287.118 287.667 287.119 287.683C287.119 287.689 287.12 287.698 287.121 287.71L287.115 287.487V287.43C287.115 287.421 287.116 287.399 287.116 287.386C287.117 287.364 287.118 287.301 287.12 287.259C287.126 287.144 287.433 285.73 288.062 284.556C290.742 283.57 293.039 284.217 294.647 285.108C295.449 283.832 296.815 282.931 298.431 282.784ZM287.128 287.844L287.13 287.846C287.128 287.819 287.125 287.793 287.124 287.767C287.125 287.793 287.126 287.821 287.128 287.844Z" fill="black"/>
<path d="M289.693 255.635V252.506C289.693 249.44 289.693 243.283 289.881 236.65C289.959 233.89 292.26 231.716 295.02 231.794C297.781 231.872 299.955 234.173 299.877 236.934C299.693 243.412 299.693 249.444 299.693 252.506V255.635C299.693 258.396 297.454 260.635 294.693 260.635C291.932 260.635 289.693 258.396 289.693 255.635Z" fill="black"/>
<path d="M241.042 253.681C242.685 251.462 245.817 250.996 248.036 252.64C250.175 254.225 250.741 254.611 251.287 254.957C252.964 255.981 254.773 257.298 256.879 258.949C258.168 259.874 259.163 260.575 259.836 261.039C260.184 261.279 260.427 261.442 260.572 261.537C262.106 262.391 263.144 264.028 263.144 265.909C263.144 268.67 260.906 270.909 258.144 270.909C257.437 270.908 256.901 270.755 256.737 270.707C256.503 270.639 256.321 270.567 256.221 270.526C256.019 270.442 255.864 270.362 255.796 270.327C255.648 270.249 255.527 270.176 255.469 270.141C255.337 270.061 255.201 269.974 255.087 269.9C254.847 269.742 254.532 269.529 254.158 269.271C253.403 268.75 252.327 267.992 250.967 267.015L250.88 266.952L250.796 266.886C248.741 265.272 247.252 264.206 246.042 263.47L245.963 263.421C245.076 262.859 244.274 262.298 242.083 260.675C239.864 259.031 239.398 255.9 241.042 253.681ZM258.529 260.925C258.49 260.922 258.45 260.918 258.409 260.915C258.449 260.917 258.489 260.922 258.529 260.925Z" fill="black"/>
<path d="M343.158 252.742C344.881 250.584 348.026 250.231 350.185 251.953C352.343 253.676 352.696 256.822 350.974 258.98C350.315 259.806 349.865 260.402 349.473 260.93C349.087 261.447 348.688 261.991 348.212 262.59L348.166 262.647L348.119 262.703C346.05 265.153 343.887 267.324 341.737 268.965L341.658 269.025L341.577 269.083C340.491 269.845 339.629 270.436 339.02 270.846C338.719 271.047 338.455 271.221 338.245 271.353C338.147 271.415 338.016 271.498 337.879 271.576C337.819 271.61 337.685 271.685 337.52 271.765C337.442 271.803 337.276 271.881 337.061 271.961C337.024 271.974 336.289 272.272 335.321 272.272C332.56 272.272 330.321 270.033 330.321 267.271C330.321 265.365 331.388 263.709 332.957 262.865C333.06 262.799 333.222 262.694 333.449 262.542C333.962 262.198 334.724 261.673 335.722 260.973C337.09 259.92 338.694 258.356 340.42 256.319C340.754 255.897 341.029 255.524 341.452 254.956C341.883 254.377 342.405 253.686 343.158 252.742ZM334.991 262.283C334.947 262.286 334.904 262.289 334.863 262.293C334.906 262.289 334.948 262.286 334.991 262.283Z" fill="black"/>
</svg>
